<?xml version="1.0" encoding="UTF-8" standalone="no"?>
<!-- Created with Inkscape (http://www.inkscape.org/) -->

<svg
   xmlns:dc="http://purl.org/dc/elements/1.1/"
   xmlns:cc="http://creativecommons.org/ns#"
   xmlns:rdf="http://www.w3.org/1999/02/22-rdf-syntax-ns#"
   xmlns:svg="http://www.w3.org/2000/svg"
   xmlns="http://www.w3.org/2000/svg"
   xmlns:sodipodi="http://sodipodi.sourceforge.net/DTD/sodipodi-0.dtd"
   xmlns:inkscape="http://www.inkscape.org/namespaces/inkscape"
   width="52.403568mm"
   height="14.405066mm"
   viewBox="0 0 52.403568 14.405066"
   version="1.1"
   id="svg1155"
   inkscape:version="0.92.3 (2405546, 2018-03-11)"
   sodipodi:docname="logo.svg">
  <defs
     id="defs1149" />
  <sodipodi:namedview
     id="base"
     pagecolor="#ffffff"
     bordercolor="#666666"
     borderopacity="1.0"
     inkscape:pageopacity="0.0"
     inkscape:pageshadow="2"
     inkscape:zoom="0.35"
     inkscape:cx="263.31609"
     inkscape:cy="-544.20642"
     inkscape:document-units="mm"
     inkscape:current-layer="layer1"
     showgrid="false"
     fit-margin-top="0"
     fit-margin-left="0"
     fit-margin-right="0"
     fit-margin-bottom="0"
     inkscape:window-width="1366"
     inkscape:window-height="715"
     inkscape:window-x="-8"
     inkscape:window-y="-8"
     inkscape:window-maximized="1" />
  <metadata
     id="metadata1152">
    <rdf:RDF>
      <cc:Work
         rdf:about="">
        <dc:format>image/svg+xml</dc:format>
        <dc:type
           rdf:resource="http://purl.org/dc/dcmitype/StillImage" />
        <dc:title></dc:title>
      </cc:Work>
    </rdf:RDF>
  </metadata>
  <g
     inkscape:label="Capa 1"
     inkscape:groupmode="layer"
     id="layer1"
     transform="translate(103.30893,9.55968)">
    <g
       transform="translate(-220.39883,-108.96336)"
       id="g1111">
      <path
         d="m 120.22232,99.40368 h 3.27591 c 1.27696,0 2.16434,0.11923 2.66208,0.357651 0.50449,0.23315 0.84735,0.614639 1.02858,1.144499 0.18797,0.52458 0.18328,1.1551 -0.0138,1.89161 -0.21864,0.816 -0.61497,1.49422 -1.18897,2.03468 -0.56871,0.54047 -1.24705,0.91665 -2.03507,1.12862 -0.46183,0.12184 -1.25969,0.18278 -2.3936,0.18278 l -1.32677,4.95157 h -3.14078 z"
         style="font-style:normal;font-variant:normal;font-weight:bold;font-stretch:normal;font-size:medium;line-height:5.5562501px;font-family:'Century Gothic';-inkscape-font-specification:'Century Gothic Bold';text-align:start;letter-spacing:-0.72231245px;word-spacing:0px;text-anchor:start;opacity:1;fill:#009cde;fill-opacity:1;stroke:none;stroke-width:0.40693414"
         id="path1034"
         inkscape:connector-curvature="0"
         sodipodi:nodetypes="csccscccccc" />
      <g
         transform="translate(0,0.94520582)"
         id="g1100">
        <path
           inkscape:connector-curvature="0"
           id="path1051"
           style="font-style:italic;font-variant:normal;font-weight:bold;font-stretch:normal;font-size:medium;line-height:5.5562501px;font-family:'Century Gothic';-inkscape-font-specification:'Century Gothic Bold Italic';text-align:start;letter-spacing:0px;word-spacing:0px;text-anchor:start;fill:#009cde;fill-opacity:1;stroke:none;stroke-width:0.32665589"
           d="m 132.16452,100.93933 h 1.65242 q 1.50567,0 2.09105,0.26158 0.72397,0.32538 1.04525,0.90595 0.32127,0.58058 0.22169,1.35894 -0.10939,0.85493 -0.66412,1.55034 -0.54754,0.68905 -1.36672,1.00805 -0.81836,0.31261 -2.63354,0.33813 l -1.04287,3.96198 h -1.76726 z m 0.76882,3.7642 q 1.44268,-0.006 1.92048,-0.29986 0.47776,-0.29349 0.55206,-0.87406 0.0417,-0.32538 -0.10211,-0.54869 -0.14369,-0.2233 -0.47039,-0.31261 -0.32672,-0.0894 -1.32838,-0.0894 z" />
        <path
           inkscape:connector-curvature="0"
           id="path1053"
           style="font-style:italic;font-variant:normal;font-weight:bold;font-stretch:normal;font-size:medium;line-height:5.5562501px;font-family:'Century Gothic';-inkscape-font-specification:'Century Gothic Bold Italic';text-align:start;letter-spacing:0px;word-spacing:0px;text-anchor:start;fill:#009cde;fill-opacity:1;stroke:none;stroke-width:0.32665589"
           d="m 142.50852,103.38286 h 1.70347 l -1.79414,6.94144 h -1.68432 l 0.19119,-0.74646 q -0.62117,0.51678 -1.13217,0.72094 -0.50462,0.20416 -1.10434,0.20416 -1.37808,0 -2.06494,-1.01441 -0.68045,-1.01443 -0.5082,-2.36061 0.13139,-1.02718 0.76657,-1.95228 0.63597,-0.93147 1.56977,-1.44825 0.94099,-0.52316 1.89161,-0.52316 0.63801,0 1.13637,0.29347 0.50474,0.29348 0.78381,0.85493 z m -3.23045,5.60164 q 0.62524,0 1.12691,-0.28071 0.50164,-0.28073 0.891,-0.88045 0.39574,-0.59972 0.47574,-1.22495 0.10544,-0.82303 -0.30953,-1.32067 -0.40761,-0.50402 -1.18598,-0.50402 -0.90596,0 -1.62329,0.6699 -0.71735,0.6699 -0.85286,1.72898 -0.10445,0.81664 0.31035,1.31429 0.41482,0.49763 1.16766,0.49763 z" />
        <path
           inkscape:connector-curvature="0"
           id="path1055"
           style="font-style:italic;font-variant:normal;font-weight:bold;font-stretch:normal;font-size:medium;line-height:5.5562501px;font-family:'Century Gothic';-inkscape-font-specification:'Century Gothic Bold Italic';text-align:start;letter-spacing:0px;word-spacing:0px;text-anchor:start;fill:#009cde;fill-opacity:1;stroke:none;stroke-width:0.32665589"
           d="m 145.06608,103.38286 h 1.67156 l 0.82521,4.12148 2.90071,-4.12148 h 1.83744 l -6.66798,9.48068 h -1.79915 l 2.41713,-3.48347 z" />
        <path
           inkscape:connector-curvature="0"
           id="path1057"
           style="font-style:italic;font-variant:normal;font-weight:bold;font-stretch:normal;font-size:medium;line-height:5.5562501px;font-family:'Century Gothic';-inkscape-font-specification:'Century Gothic Bold Italic';text-align:start;letter-spacing:0px;word-spacing:0px;text-anchor:start;fill:#fc6591;fill-opacity:1;stroke:none;stroke-width:0.32665589"
           d="m 158.44118,104.81836 -1.5423,0.78474 q -0.51287,-0.77836 -1.54643,-0.77836 -0.69542,0 -1.26971,0.29986 -0.57348,0.29348 -0.96431,0.85492 -0.39085,0.56145 -0.47085,1.18669 -0.10284,0.80387 0.33912,1.28875 0.44198,0.48488 1.32241,0.48488 1.21858,0 1.97465,-0.82302 l 1.21899,0.94425 q -0.65434,0.67628 -1.55188,1.05907 -0.89112,0.3828 -1.93107,0.3828 -1.62051,0 -2.44409,-0.8932 -0.81719,-0.8932 -0.62943,-2.36059 0.21475,-1.67794 1.5205,-2.85825 1.30661,-1.18667 3.12491,-1.18667 2.04798,0 2.84949,1.61413 z" />
        <path
           inkscape:connector-curvature="0"
           id="path1059"
           style="font-style:italic;font-variant:normal;font-weight:bold;font-stretch:normal;font-size:medium;line-height:5.5562501px;font-family:'Century Gothic';-inkscape-font-specification:'Century Gothic Bold Italic';text-align:start;letter-spacing:0px;word-spacing:0px;text-anchor:start;fill:#fc6591;fill-opacity:1;stroke:none;stroke-width:0.32665589"
           d="m 164.39367,103.38286 h 1.70346 l -1.79414,6.94144 h -1.68432 l 0.19119,-0.74646 q -0.62117,0.51678 -1.13217,0.72094 -0.50462,0.20416 -1.10434,0.20416 -1.37808,0 -2.06494,-1.01441 -0.68045,-1.01443 -0.5082,-2.36061 0.13138,-1.02718 0.76656,-1.95228 0.63597,-0.93147 1.56978,-1.44825 0.94099,-0.52316 1.89161,-0.52316 0.63801,0 1.13637,0.29347 0.50474,0.29348 0.78381,0.85493 z m -3.23047,5.60164 q 0.62525,0 1.12691,-0.28071 0.50165,-0.28073 0.89101,-0.88045 0.39575,-0.59972 0.47575,-1.22495 0.10544,-0.82303 -0.30954,-1.32067 -0.40762,-0.50402 -1.18598,-0.50402 -0.90596,0 -1.62329,0.6699 -0.71734,0.6699 -0.85285,1.72898 -0.10445,0.81664 0.31034,1.31429 0.41482,0.49763 1.16765,0.49763 z" />
        <path
           inkscape:connector-curvature="0"
           id="path1061"
           style="font-style:italic;font-variant:normal;font-weight:bold;font-stretch:normal;font-size:medium;line-height:5.5562501px;font-family:'Century Gothic';-inkscape-font-specification:'Century Gothic Bold Italic';text-align:start;letter-spacing:0px;word-spacing:0px;text-anchor:start;fill:#fc6591;fill-opacity:1;stroke:none;stroke-width:0.32665589"
           d="m 167.79638,100.70326 h 1.69709 l -2.50705,9.62104 h -1.69709 z" />
      </g>
      <path
         inkscape:connector-curvature="0"
         id="path1089"
         d="m 122.70867,105.4583 c -0.98185,0 -1.78456,0.3204 -2.40812,0.96119 -0.62357,0.63734 -0.93534,1.40904 -0.93534,2.3151 0,0.79237 0.25149,1.42971 0.75447,1.91203 0.50643,0.48231 1.19718,0.72347 2.07223,0.72347 0.56155,0 1.0697,-0.10335 1.52445,-0.31006 0.4582,-0.20671 0.84061,-0.49265 1.14722,-0.85783 l -1.08521,-0.76481 c -0.002,0.003 -0.005,0.005 -0.007,0.007 l -0.48783,-0.34364 c -0.23586,0.2983 -0.57481,0.44751 -1.01647,0.44751 -0.31911,0 -0.56973,-0.0878 -0.75241,-0.26355 -0.18268,-0.17574 -0.27389,-0.40937 -0.27389,-0.70073 0,-0.22661 0.0575,-0.44195 0.17312,-0.64544 0.11562,-0.20348 0.27085,-0.35819 0.46509,-0.46457 0.19424,-0.10868 0.41716,-0.1633 0.66921,-0.1633 0.3746,0 0.67304,0.14113 0.89503,0.42323 l 0.78393,-0.42633 c -0.003,-0.005 -0.007,-0.0101 -0.0109,-0.0155 l 0.96738,-0.52658 c -0.54432,-0.87161 -1.36942,-1.30742 -2.4753,-1.30742 z"
         style="font-style:italic;font-variant:normal;font-weight:bold;font-stretch:normal;font-size:medium;line-height:5.5562501px;font-family:'Century Gothic';-inkscape-font-specification:'Century Gothic Bold Italic';text-align:start;letter-spacing:0px;word-spacing:0px;text-anchor:start;fill:#fc6591;fill-opacity:1;stroke:none;stroke-width:0.26458332" />
    </g>
  </g>
</svg>
